<?xml version="1.0" encoding="UTF-8"?>
<svg id="alltogether" xmlns="http://www.w3.org/2000/svg" viewBox="0 0 523.4 428.51">
  <defs>
    <style>
      .cls-1 {
        fill: #f7b724;
      }

      .cls-2 {
        fill: #fac659;
      }

      .cls-3 {
        fill: #006837;
      }

      .cls-4 {
        fill: #f6931e;
      }

      .cls-5 {
        fill: #ea6c28;
      }

      .cls-6 {
        fill: #ff0;
      }

      .cls-7 {
        fill: #f18d97;
      }

      .cls-8 {
        fill: #8ec33f;
      }

      .cls-9 {
        fill: #7b372c;
      }

      .cls-10 {
        fill: none;
        stroke: #603813;
        stroke-miterlimit: 10;
        stroke-width: 5px;
      }
    </style>
  </defs>
  <path id="gf_inside2" class="cls-2" d="m352.97,409.1c31.33-28.26,58.76-47.7,78.65-60.49,14.93-9.61,25.06-15.13,35.57-11.37,19.01,6.8,31.28,41.11,21.43,57.6-5.74,9.61-17.72,11.02-34.2,12.29-24.6,1.89-58.93,3.45-101.44,1.98Z"/>
  <path id="gf_inside" class="cls-7" d="m377.1,399.7c23.63-19.76,44.27-33.39,59.22-42.38,11.23-6.75,18.84-10.64,26.66-8.12,14.15,4.55,23.05,28.15,15.56,39.61-4.36,6.68-13.32,7.75-25.64,8.75-18.39,1.5-44.05,2.83-75.8,2.15Z"/>
  <path id="ofgg" class="cls-4" d="m362.16,54.62c14.26-3.11,73.31-16.2,118.31,21.13,56.14,46.57,42.08,126.16,39.44,139.44-11.35,56.91-50.93,90.06-83.1,116.9-54.77,45.7-113.53,63.6-152.35,71.18-14.09-41.2-21.74-77.18-26.15-104.61-3.81-23.72-8.3-52.54-7.47-90.91.74-34.09,5.39-62.61,9.96-83.44,7.59-11.15,40.2-56.34,101.36-69.7Z"/>
  <path id="orange_inside" class="cls-5" d="m289.7,369.26c.07.04.17.06.25.03,2.32-.8-8.43-37.42-10.55-44.94-4.83-17.1-18.93-67.31-14.46-121.7,1.91-23.17,5.82-70.77,39.64-106.34,13.65-14.36,26.97-21.31,32.72-24,14.45-6.77,51.87-20.25,66.21-7.02,14.83,13.69-2.63,48.97-48.78,162.48-38.75,95.31-66.77,140.61-65.02,141.49Zm170.44-79.85s51.4-62.11,46.99-147c-.95-18.28-6.36-27.82-12.05-33.74-9.3-9.67-23.76-14.34-34.94-13.25-21.62,2.09-32.1,25.78-75.91,112.06-16.92,33.31-32.61,67.27-50.61,100.01-23.99,43.65-28.92,60.25-28.92,60.25,19.12-1.69,99.72-10.99,155.43-78.32Z"/>
  <path id="of_leaves" class="cls-8" d="m511.75,78.48c-6.83,2.96-17.24,6.2-29.59,5.34-5.07-.35-11.86-.9-19.28-5.08-3.55-2-6.42-4.36-8.71-6.71-8.09-1.26-17.72-4.01-27.32-9.82-5.48-3.31-12.77-7.83-18.79-16.93-7.04-10.64-8.37-21.52-8.67-27.03,6.05-1.01,25.1-3.38,42.57,8.23,4.87,3.24,16.07,10.68,20.24,25.63.32,1.13.57,2.24.78,3.33,5.19-1.58,11.33-2.53,18.07-1.77,4.61.52,15.21,1.71,23.25,10.6,4.67,5.16,6.6,10.84,7.45,14.22h0Z"/>
  <path id="pf_colour" class="cls-1" d="m109.26,376.46s-12.59,7.07-27.99,9.58c-11.35,1.85-17.94,2.84-25.7-.14-1.56-.6-16.26-6.24-16.24-16.04.01-8.02,9.87-13.75,16.24-15.68,2.89-.88,8.66-2.08,21.01,1.69,11.66,3.55,32.68,20.6,32.68,20.6Zm-36.37,12.03c-10.82,7.05-13.6,12.25-14.78,15.02-2.61,6.13-4.55,17.37,1.59,22.52,7.5,6.3,21.26-1.34,22.73-2.15,7.26-4.03,10.74-9.72,16.61-19.61,7.96-13.41,10.63-27.61,10.63-27.61,0,0-26.57,5.16-36.78,11.82Z"/>
  <path id="pf_seeds" class="cls-9" d="m101.71,375.57s-10.51,5.9-23.35,7.99c-9.47,1.54-14.97,2.37-21.44-.12-1.3-.5-13.57-5.21-13.55-13.38.01-6.69,8.24-11.47,13.55-13.09,2.41-.73,7.22-1.73,17.53,1.41,9.73,2.96,27.27,17.19,27.27,17.19Zm-27.96,14.86c-8.89,6.08-11.12,10.47-12.06,12.81-2.06,5.16-3.47,14.57,1.74,18.76,6.37,5.12,17.71-1.51,18.92-2.22,5.98-3.5,8.78-8.31,13.5-16.67,6.4-11.33,8.36-23.22,8.36-23.22,0,0-22.07,4.8-30.46,10.54Z"/>
  <g id="pa_fruit">
    <path class="cls-6" d="m223.44,242.62c1.59,18.34,5.5,52.46,16.67,94.14,6.98,26.04,14.92,48.02,21.93,65.25-19.22.5-135.27,1.72-208.64-85.99-15.16-18.12-64.42-77.14-49.3-150.7,2.04-9.93,19.08-86.53,85.92-104.23,49.05-12.99,105.1,11,136.62,60.56-6.75,48.49-5.89,89.96-3.21,120.96Z"/>
  </g>
  <g id="palines">
    <path class="cls-10" d="m1.77,167.67l232.21,232.21M33.12,98.39l196.99,196.99M101.41,61.59l121.73,121.73M6.65,240.16L175.29,71.52m49.95,45.76L41.12,301.41m49.85,48.09l129.99-129.99m10.64,77.35l-83.02,83.02m85.49,20.08l20.08-20.08"/>
  </g>
  <path id="paleaves" class="cls-3" d="m155.6,44.82c.11,5.51.34,13.82-5.14,17.33-3.59,2.3-8,1.51-10.23.91-6.43-2.12-19.54-5.45-35.46-2.21-9.82,2-17.36,5.82-22.27,8.85-9.48,8.41-20.15,11.58-25.89,7.76-3.86-2.57-5.53-8.35-6.97-13.34-1.33-4.62-1.54-8.34-1.74-11.79-.27-4.77-.08-10.34,1-16.6,3.59-.42,9.93-.69,17.23,1.75,5.42,1.81,9.4,4.46,11.93,6.45-1.2-3.39-3.88-12.35-1.15-23.35,2.84-11.42,9.83-18.22,12.5-20.58,4.2,1.26,12.58,4.38,20.27,12.09,8.8,8.83,11.73,18.69,12.74,22.97.41-.66.82-1.28,1.23-1.84,7.16-9.83,16.49-13.63,22.63-15.22,8.15,11.64,9.22,21.86,9.32,26.82Z"/>
</svg>