<?xml version="1.0" encoding="UTF-8"?>
<svg id="canicon" xmlns="http://www.w3.org/2000/svg" viewBox="0 0 247.67 532.14">
  <defs>
    <style>
      .cls-1 {
        fill: #f6931e;
      }

      .cls-2 {
        fill: #ff0;
      }

      .cls-3 {
        fill: #f18d97;
      }

      .cls-4 {
        fill: #9c2e55;
      }

      .cls-5 {
        fill: none;
        stroke: #000;
        stroke-miterlimit: 10;
        stroke-width: 9px;
      }
    </style>
  </defs>
  <path id="can" class="cls-5" d="m19.05,105.43h211.33m12.79,113.42v-53.16l-12.79-31.07v-29.18H19.05v30.29l-14.55,33.37v322.37h101.8m-83.14,0l10.75,20.93-10.75-20.93Zm186.07,20.93H33.91h175.32Zm33.93-275.43v35.63m-29.74,239.8H33.55l-5.19,8.48-5.19,6.79h192.45l-6.38-15.27,33.93-35.06v-182.11m-101.21,196.25h28.61m11.33,0h38.81M4.5,177.29h60.36m13.46,0h18.17m12.79,0h133.89M19.05,135.71h96.45m9.21,0h20.04m9.4,0h73.63"/>
  <path id="pinkc" class="cls-3" d="m122.79,13.67c0,7.55-6.12,13.67-13.67,13.67s-13.67-6.12-13.67-13.67S101.57,0,109.12,0s13.67,6.12,13.67,13.67Z"/>
  <path id="orangec" class="cls-1" d="m163.81,51.36c0,6.44-5.22,11.67-11.67,11.67s-11.67-5.22-11.67-11.67,5.22-11.67,11.67-11.67,11.67,5.22,11.67,11.67Z"/>
  <path id="purplec" class="cls-4" d="m158.98,17.24c0,3.77-3.06,6.83-6.83,6.83s-6.83-3.06-6.83-6.83,3.06-6.83,6.83-6.83,6.83,3.06,6.83,6.83Z"/>
  <g id="yellowcircle">
    <path class="cls-2" d="m130.85,76.66c0,4.8-3.89,8.68-8.68,8.68s-8.68-3.89-8.68-8.68,3.89-8.68,8.68-8.68,8.68,3.89,8.68,8.68Z"/>
  </g>
</svg>