<?xml version="1.0" encoding="UTF-8"?>
<svg id="grapefruit" xmlns="http://www.w3.org/2000/svg" viewBox="0 0 622.47 717.04">
  <defs>
    <style>
      .cls-1 {
        fill: #fac659;
      }

      .cls-2 {
        fill: #00b01c;
      }

      .cls-3 {
        fill: #f18d97;
      }
    </style>
  </defs>
  <path id="gfcircle" class="cls-1" d="m622.47,405.8c0,171.89-139.34,311.23-311.23,311.23S0,577.69,0,405.8,139.34,94.57,311.23,94.57c18.03,0,35.69,1.53,52.88,4.47,146.7,25.11,258.35,152.9,258.35,306.76Z"/>
  <g id="insidefruitgf">
    <path id="in" class="cls-3" d="m327.57,383.06c-9.69,9.08-5.81-9.08-5.81-9.08,0,0-13.57-217.09,15.51-236.47,29.07-19.38,124.05,23.26,135.68,44.58s-135.68,191.89-135.68,191.89l-9.69,9.08Zm-25.25-13.46s-.16-225.38-22.9-233.9c-22.74-8.52-122.48,21.36-131.79,55.04-9.31,33.68,142.96,189,142.96,189,0,0,8.95,16.27,10.34,3.06l1.39-13.21Zm38.88,20.96c-8.31,10.36,9.5,5.1,9.5,5.1,0,0,217.49-3.05,234.6-33.52,17.11-30.47-32.67-121.91-54.82-131.88-22.15-9.97-180.97,149.94-180.97,149.94l-8.31,10.36Zm-16.22,19.69c-13.2,1.44,3.1,10.33,3.1,10.33,0,0,155.88,151.71,189.52,142.27,33.65-9.43,63.16-109.27,54.56-131.99-8.6-22.71-233.98-22.05-233.98-22.05l-13.2,1.44Zm-45.11-28.52S112.47,230.84,90.9,242.01c-21.56,11.18-66.21,105.23-47.45,134.71,18.76,29.48,236.09,20.51,236.09,20.51,0,0,18.07,4.26,9.2-5.62l-8.87-9.88Zm-7.3,29.64s-225.11,10.97-232.53,34.1c-7.42,23.13,27.21,121.31,61.3,128.99,34.09,7.68,181.93-151.87,181.93-151.87,0,0,15.82-9.72,2.56-10.47l-13.26-.76Zm13.21,19.44s-149.93,168.28-138.63,189.78c11.3,21.5,105.61,65.6,134.98,46.67,29.37-18.93,19.16-236.21,19.16-236.21,0,0,4.16-18.1-5.67-9.17l-9.83,8.93Zm34.21,13.41s-3.32,225.35,19.29,234.22c22.61,8.87,122.79-19.46,132.62-52.99,9.83-33.53-140.03-191.19-140.03-191.19,0,0-8.69-16.41-10.29-3.22l-1.59,13.18Z"/>
  </g>
  <path id="grapefruitleave" class="cls-2" d="m316.59,96.46c10.24,19.45,26.38,59.15,10.38,96.08-11.96,27.58-36.26,40.72-72.34,60.23-40.24,21.76-78.21,32.52-107.59,38.13-18.67-83.17-12.25-105.27-12.25-105.27,7.12-24.51,23.46-39.34,36.77-51.42,42.33-38.43,95.06-46.49,125.25-47.97,4.12-21.96,8.25-43.93,12.37-65.89,12.55-6.79,25.09-13.57,37.64-20.36-9.44,32.15-18.88,64.31-28.32,96.46h-1.9Z"/>
</svg>