<?xml version="1.0" encoding="UTF-8"?>
<svg id="passionfruit" xmlns="http://www.w3.org/2000/svg" viewBox="0 0 622.47 723">
  <defs>
    <style>
      .cls-1 {
        fill: #f7b724;
      }

      .cls-2 {
        fill: #faec96;
      }

      .cls-3 {
        fill: #9c2e55;
      }

      .cls-4 {
        fill: #5c903e;
      }

      .cls-5 {
        fill: #5d4627;
      }

      .cls-6 {
        fill: #7b372c;
      }
    </style>
  </defs>
  <path id="stempf" class="cls-5" d="m398.5,13.04c-1.82,11.63-4.96,25.21-10.4,39.86-10.78,29.04-26.16,50.32-38.13,64.13l20.8-6.93c11.41-8.45,28.65-23.41,43.33-46.79,15.79-25.16,21.61-48.92,24.01-63.31-13.2,4.35-26.4,8.7-39.61,13.04Z"/>
  <path id="bgpf" class="cls-3" d="m622.47,411.76c0,171.89-139.34,311.23-311.23,311.23S0,583.65,0,411.76,139.34,100.53,311.23,100.53c18.03,0,35.69,1.53,52.88,4.47,146.7,25.11,258.35,152.9,258.35,306.76Z"/>
  <path id="leavepf" class="cls-4" d="m384.02,63.04c-12.69,6.82-54.84,27.38-106.84,15.86-27.45-6.08-47.35-18.82-58.93-27.73,7-7.49,20.04-19.49,39.86-27.73,15.62-6.5,29.65-8.25,39-8.67,8.32-.85,25.4-1.43,44.19,6.93,27.04,12.04,39.27,34.41,42.72,41.33Z"/>
  <circle id="tinycircle2" class="cls-2" cx="311.23" cy="411.76" r="269.4"/>
  <path id="tinycircle" class="cls-1" d="m547.62,411.76c0,129.86-105.27,235.14-235.14,235.14s-235.14-105.27-235.14-235.14,105.27-235.14,235.14-235.14,235.14,105.27,235.14,235.14Z"/>
  <path id="seeds" class="cls-6" d="m244.3,280.15c-11.74,4.11-48.05-37.64-35.89-59.55,4.87-8.78,17.79-14.85,26.92-11.42,21.16,7.95,21.17,66.7,8.97,70.97Zm70.59-78.11c-7.63-6.07-21.79-4.25-29.12,2.6-18.3,17.12,3.44,68,15.88,67.69,12.92-.32,30.94-56.23,13.25-70.3Zm83.93,25.73c-2.37-9.46-14.71-16.63-24.7-15.65-24.94,2.45-38.64,56.06-28.58,63.38,10.45,7.6,58.76-25.81,53.28-47.73Zm-228.89,24.79c-9.75.05-19.66,10.32-21.08,20.26-3.56,24.8,45.24,50.88,54.75,42.86,9.87-8.34-11.06-63.22-33.66-63.12Zm282.32,22.11c-.6-9.73-11.43-19.04-21.43-19.9-24.96-2.14-48.22,48.07-39.67,57.1,8.89,9.38,62.49-14.65,61.09-37.21Zm47.94,62.87c2.37-9.46-5.14-21.6-14.42-25.44-23.15-9.58-60.49,31.26-55.06,42.46,5.64,11.63,63.99,4.91,69.48-17.02Zm-317.24,18.99c5.43-11.2-31.91-52.04-55.06-42.46-9.27,3.84-16.79,15.98-14.42,25.44,5.49,21.93,63.84,28.65,69.48,17.02Zm61.34,179.66c-11.74-4.11-48.05,37.64-35.89,59.55,4.87,8.78,17.79,14.85,26.92,11.42,21.16-7.95,21.17-66.7,8.97-70.97Zm57.35,7.81c-12.44-.31-34.18,50.57-15.88,67.69,7.33,6.86,21.49,8.67,29.12,2.6,17.69-14.06-.33-69.97-13.25-70.3Zm43.9-3.17c-10.06,7.32,3.64,60.93,28.58,63.38,9.99.98,22.33-6.19,24.7-15.65,5.49-21.93-42.83-55.34-53.28-47.73Zm-141.94-40.17c-9.51-8.03-58.31,18.05-54.75,42.86,1.43,9.94,11.33,20.21,21.08,20.26,22.6.1,43.54-54.78,33.66-63.12Zm187.56,3.8c-8.56,9.04,14.7,59.24,39.67,57.1,10-.86,20.83-10.16,21.43-19.9,1.39-22.56-52.21-46.59-61.09-37.21Zm39.56-42.68c-5.43,11.2,31.91,52.04,55.06,42.46,9.27-3.84,16.79-15.98,14.42-25.44-5.49-21.93-63.84-28.65-69.48-17.02Zm-317.24,15.04c-2.37,9.46,5.14,21.6,14.42,25.44,23.15,9.58,60.49-31.26,55.06-42.46-5.64-11.63-63.99-4.91-69.48,17.02Zm-19.53-81.61c-5.57,8-2.86,22.02,4.45,28.9,18.24,17.18,67.64-7.75,66.54-20.15-1.14-12.87-58.08-27.3-70.99-8.75Zm414.4,24.7c5.61-7.97,2.97-22-4.3-28.92-18.15-17.27-67.68,7.4-66.65,19.8,1.07,12.88,57.94,27.61,70.95,9.12Zm-194.63-111.63c-6.67-5.3-19.05-3.72-25.45,2.28-15.99,14.96,3.01,59.43,13.88,59.16,11.29-.28,27.04-49.14,11.58-61.44Zm-70.8,24.07c-8.42,1.32-15.62,11.51-15.55,20.28.19,21.9,45.79,38,52.95,29.81,7.43-8.5-17.89-53.16-37.4-50.1Zm143.66,18.84c-.22-8.52-9.38-16.99-18.09-18.05-21.74-2.66-43.64,40.46-36.45,48.62,7.46,8.48,55.04-10.82,54.54-30.56Zm14.77,70.86c5.14-6.8,3.24-19.13-2.9-25.39-15.35-15.62-59.34,4.47-58.8,15.33.56,11.28,49.8,25.82,61.7,10.06Zm-197.99-29.58c-5.92,6.13-5.54,18.6-.19,25.55,13.34,17.36,59.44,2.75,60.22-8.1.81-11.26-46.3-31.66-60.03-17.46Zm96.21,55.94c-10.87-.27-29.87,44.2-13.88,59.16,6.41,5.99,18.78,7.58,25.45,2.28,15.46-12.29-.29-61.16-11.58-61.44Zm-21.82-12.73c-7.16-8.19-52.76,7.92-52.95,29.81-.08,8.77,7.13,18.96,15.55,20.28,19.51,3.07,44.83-41.59,37.4-50.1Zm51.73.7c-7.19,8.16,14.71,51.28,36.45,48.62,8.71-1.07,17.87-9.54,18.09-18.05.5-19.75-47.07-39.04-54.54-30.56Z"/>
</svg>